<?xml version="1.0" encoding="UTF-8" standalone="no"?>
<svg
   xmlns:dc="http://purl.org/dc/elements/1.1/"
   xmlns:cc="http://creativecommons.org/ns#"
   xmlns:rdf="http://www.w3.org/1999/02/22-rdf-syntax-ns#"
   xmlns:svg="http://www.w3.org/2000/svg"
   xmlns="http://www.w3.org/2000/svg"
   xmlns:sodipodi="http://sodipodi.sourceforge.net/DTD/sodipodi-0.dtd"
   xmlns:inkscape="http://www.inkscape.org/namespaces/inkscape"
   id="Layer_1"
   data-name="Layer 1"
   viewBox="0 0 3000 3000"
   version="1.1"
   sodipodi:docname="drileba.svg"
   inkscape:version="0.92.4 (5da689c313, 2019-01-14)">
  <metadata
     id="metadata3793">
    <rdf:RDF>
      <cc:Work
         rdf:about="">
        <dc:format>image/svg+xml</dc:format>
        <dc:type
           rdf:resource="http://purl.org/dc/dcmitype/StillImage" />
      </cc:Work>
    </rdf:RDF>
  </metadata>
  <sodipodi:namedview
     pagecolor="#ffffff"
     bordercolor="#666666"
     borderopacity="1"
     objecttolerance="10"
     gridtolerance="10"
     guidetolerance="10"
     inkscape:pageopacity="0"
     inkscape:pageshadow="2"
     inkscape:window-width="1920"
     inkscape:window-height="1027"
     id="namedview3791"
     showgrid="false"
     inkscape:zoom="0.286"
     inkscape:cx="1500"
     inkscape:cy="1500"
     inkscape:window-x="-8"
     inkscape:window-y="-8"
     inkscape:window-maximized="1"
     inkscape:current-layer="Layer_1" />
  <defs
     id="defs3756">
    <style
       id="style3754">.cls-1{fill:none;stroke:#000;stroke-miterlimit:10;stroke-width:7px;}</style>
  </defs>
  <title
     id="title3758">Drileba x Scilla-logo</title>
  <path
     d="M947,1527.91H902.47v86.9H820.78V1287.75h132q39.2,0,68.08,14.72a105.26,105.26,0,0,1,44.56,42q15.67,27.33,15.68,64.25,0,35.51-14.65,61.9A104.07,104.07,0,0,1,1024.6,1512l62.3,102.79H999.43Zm38.79-154.65q-12.8-12.62-38-12.62H902.47v95.78h45.39q25.15,0,38-12.38t12.79-35.27Q998.61,1385.88,985.82,1373.26Z"
     id="path3760" />
  <path
     d="M1140.88,1287.75h81.7v327.06h-81.7Z"
     id="path3762" />
  <path
     d="M1282.77,1287.75h81.7v253.71h137.8v73.35h-219.5Z"
     id="path3764" />
  <path
     d="M1776.07,1543.33v71.48H1544.2V1287.75h226.51v71.49H1625.06v55.13h128.32v69.15H1625.06v59.81Z"
     id="path3766" />
  <path
     d="M2092,1474.88q14,20.79,14,50.22,0,43-30.53,66.35t-88.3,23.36h-156V1287.75H1979q55.29,0,84.17,23.13t28.88,62.38q0,23.37-10.11,41.81a74.63,74.63,0,0,1-28.67,29.2C2072.14,1451.28,2082.68,1461,2092,1474.88Zm-179.89-120.31v63.07h56.11q41.25,0,41.26-31.77,0-31.29-41.26-31.3Zm111.4,160.25q0-33.16-42.91-33.17h-68.49V1548h68.49Q2023.53,1548,2023.54,1514.82Z"
     id="path3768" />
  <path
     d="M2353,1551.46H2231.24l-22.63,63.35h-83.09l127.11-326.06h80.21l127.51,326.06h-84.73Zm-23.86-68-37-104.34-37,104.34Z"
     id="path3770" />
  <path
     d="M448.21,1684.86a38.21,38.21,0,0,1,10.65-26.13,39.66,39.66,0,0,1,12.82-8.82,42.13,42.13,0,0,1,17.22-3.36q11.44,0,19.63,4.65a30.38,30.38,0,0,1,12.16,12.13l-8.55,5a22.61,22.61,0,0,0-4.64-6.17,23.82,23.82,0,0,0-5.9-4A27,27,0,0,0,495,1656a34.37,34.37,0,0,0-6.62-.65,28.48,28.48,0,0,0-12.58,2.65A28.51,28.51,0,0,0,461,1674.53a32.38,32.38,0,0,0-1.87,10.76,30.16,30.16,0,0,0,2.23,11.53,31,31,0,0,0,6.2,9.68,29.68,29.68,0,0,0,9.39,6.71,27.92,27.92,0,0,0,11.8,2.49,33.36,33.36,0,0,0,6.92-.75,27.3,27.3,0,0,0,6.81-2.44,29.08,29.08,0,0,0,6.08-4.22,20.61,20.61,0,0,0,4.63-6.11l9,4.43a23.81,23.81,0,0,1-5.72,7.63,36.35,36.35,0,0,1-8.3,5.58,46.56,46.56,0,0,1-19.93,4.65,37.29,37.29,0,0,1-16.13-3.46,42.72,42.72,0,0,1-12.71-9,40.67,40.67,0,0,1-8.3-12.66A37.24,37.24,0,0,1,448.21,1684.86Z"
     id="path3772" />
  <path
     d="M808.78,1647h8.41l32.08,76.84H838.65l-9.29-22.51h-33l-9.18,22.51H776.59Zm18.37,46.75L813,1658.24l-14.6,35.49Z"
     id="path3774" />
  <path
     d="M1130.82,1723.93v-76.84h32.74a21.79,21.79,0,0,1,9.57,2.11,24.07,24.07,0,0,1,7.53,5.63,26.88,26.88,0,0,1,4.92,7.9,23.65,23.65,0,0,1,1.77,8.93,26,26,0,0,1-1.66,9.2,25.29,25.29,0,0,1-4.7,7.9,22.78,22.78,0,0,1-7.3,5.52,21.51,21.51,0,0,1-9.46,2h-23.46v27.6Zm10-36.26h22.9a12.31,12.31,0,0,0,5.59-1.24,12.59,12.59,0,0,0,4.26-3.46,17.15,17.15,0,0,0,2.77-5.14,19.13,19.13,0,0,0,1-6.17,17,17,0,0,0-4.26-11.36,13.53,13.53,0,0,0-4.53-3.36,13.09,13.09,0,0,0-5.48-1.19h-22.24Z"
     id="path3776" />
  <path
     d="M1467.11,1721.59v-76.84h10v76.84Z"
     id="path3778" />
  <path
     d="M1818.88,1655.75h-27.1v68.18h-10v-68.18h-27.1v-8.66h64.16Z"
     id="path3780" />
  <path
     d="M2111.9,1647.09h8.41l32.08,76.84h-10.62l-9.29-22.51h-33l-9.18,22.51h-10.62Zm18.37,46.75-14.17-35.49-14.6,35.49Z"
     id="path3782" />
  <path
     d="M2433.47,1723v-76.84h10v68.18h43.81V1723Z"
     id="path3784" />
  <path
     d="M756.09,1364a142.78,142.78,0,0,0-57.73-57.79Q661.13,1285.8,613,1285.8H474.57v198.66l108.64,131.35h-.94l1.27,1.55H613q48.11,0,85.33-20.37a142.57,142.57,0,0,0,57.73-57.78q20.49-37.42,20.5-87.64T756.09,1364Zm-86,154.42q-22.8,24.17-60.45,24.16H557.4V1360.64h52.28q37.65,0,60.45,24.16t22.8,66.78Q692.93,1494.23,670.13,1518.37Z"
     id="path3786" />
  <rect
     class="cls-1"
     x="111.42"
     y="873.93"
     width="2777.16"
     height="1252.14"
     id="rect3788" />
  <rect
     style="fill:none"
     id="rect3797"
     width="66.433563"
     height="125.87412"
     x="0"
     y="765.73425" />
  <rect
     style="fill:none"
     id="rect3801"
     width="3006.9932"
     height="1486.0139"
     x="0"
     y="765.73425" />
  <rect
     style="fill:none"
     id="rect3828"
     width="3006.9932"
     height="1486.0138"
     x="0"
     y="765.73425" />
  <rect
     style="fill:none"
     id="rect3830"
     width="3006.9932"
     height="1486.0138"
     x="0"
     y="765.73425" />
  <rect
     style="fill:none"
     id="rect60"
     width="3006.9932"
     height="1486.0138"
     x="0"
     y="765.73425" />
</svg>
