<?xml version="1.0" encoding="utf-8"?>
<!-- Generator: Adobe Illustrator 22.0.0, SVG Export Plug-In . SVG Version: 6.00 Build 0)  -->
<svg version="1.1" id="Layer_1" xmlns="http://www.w3.org/2000/svg" xmlns:xlink="http://www.w3.org/1999/xlink" x="0px" y="0px"
	 viewBox="0 0 430.9 119.1" style="enable-background:new 0 0 430.9 119.1;" xml:space="preserve">
<style type="text/css">
	.st0{enable-background:new;}
	.st1{fill:#4BC1BE;}
	.st2{fill:#278D96;}
	.st3{fill:#057A8E;}
</style>
<text transform="matrix(1 0 0 1 -510.2567 949.9775)" class="st1" style="font-family:'Avenir-Heavy'; font-size:267.3288px;">zilliqa</text>
<g>
	<path d="M10.6,85.1V53.8c0-1.7-0.2-5.1-0.6-10h7.6V48c0.2-1.1,1.2-2.2,2.9-3.3s3.8-1.7,6.3-1.7c2.6,0,4.9,0.7,6.9,2.2
		c2,1.4,3.5,3.3,4.5,5.6c1,2.3,1.5,4.8,1.5,7.5c0,2-0.3,4-0.9,5.9c-0.6,1.9-1.5,3.6-2.6,5.1c-1.1,1.5-2.5,2.7-4.2,3.6
		c-1.7,0.9-3.6,1.4-5.7,1.4c-2.3,0-4.3-0.6-6-1.7c-1.6-1.1-2.6-2.1-2.8-3.1v15.6H10.6z M24.9,68.4c1.3,0,2.5-0.3,3.5-0.8
		c1-0.5,1.8-1.3,2.4-2.2s1-2,1.3-3.1c0.3-1.1,0.4-2.4,0.4-3.7c0-1.8-0.3-3.5-0.8-4.9c-0.5-1.4-1.3-2.6-2.5-3.5
		c-1.2-0.9-2.6-1.4-4.3-1.4c-1.7,0-3.1,0.5-4.3,1.4c-1.2,0.9-2,2.1-2.5,3.5c-0.5,1.4-0.8,3-0.8,4.8c0,1.4,0.1,2.6,0.4,3.8
		c0.3,1.2,0.7,2.2,1.3,3.1c0.6,0.9,1.4,1.7,2.4,2.2C22.4,68.2,23.6,68.4,24.9,68.4z"/>
	<path d="M61.8,74.3c-2.6,0-4.9-0.4-6.9-1.3s-3.7-2-4.9-3.4c-1.2-1.4-2.2-3.1-2.8-4.9c-0.6-1.8-1-3.8-1-5.9c0-2.2,0.3-4.2,1-6
		s1.6-3.5,2.9-5c1.3-1.4,2.9-2.6,4.9-3.4c2-0.8,4.3-1.2,6.8-1.2c2.6,0,4.9,0.4,6.9,1.2c2,0.8,3.6,2,4.9,3.4c1.2,1.4,2.1,3.1,2.7,5
		c0.6,1.9,0.9,3.9,0.9,6.1c0,2.1-0.3,4-1,5.9c-0.6,1.8-1.6,3.5-2.8,4.9c-1.2,1.5-2.8,2.6-4.9,3.5C66.6,73.8,64.3,74.3,61.8,74.3z
		 M61.7,68.4c1.4,0,2.7-0.3,3.7-0.8c1.1-0.5,1.9-1.3,2.5-2.2c0.6-0.9,1.1-2,1.4-3.1s0.5-2.4,0.5-3.7c0-2.8-0.7-5.2-2-7
		c-1.3-1.8-3.3-2.7-6-2.7c-1.8,0-3.3,0.5-4.6,1.4c-1.2,0.9-2.1,2.1-2.7,3.5s-0.8,3.1-0.8,4.9c0,1.8,0.3,3.4,0.8,4.9
		c0.5,1.4,1.4,2.6,2.6,3.6S59.8,68.4,61.7,68.4z"/>
	<path d="M91.6,73.6L80.8,43.8h7.7c3,9.3,5.3,16.3,6.8,21c0.8-2.3,3.1-9.3,7-21h6.3c0.5,1.6,1.2,3.8,2.1,6.6
		c0.9,2.9,1.7,5.5,2.5,7.8c0.7,2.3,1.5,4.5,2.1,6.6c0.6-1.8,2.9-8.8,6.9-21h6.7l-11.3,29.8h-6c-4.1-12.2-6.3-19-6.8-20.3
		c-0.8,2.1-3.2,8.9-7.2,20.3H91.6z"/>
	<path d="M148.7,74.3c-5,0-9-1.4-11.9-4.3c-2.9-2.9-4.3-6.6-4.3-11.2c0-2.1,0.3-4.1,1-6c0.7-1.9,1.7-3.5,2.9-5
		c1.3-1.5,2.9-2.6,4.8-3.5c1.9-0.9,4.1-1.3,6.5-1.3c2.4,0,4.4,0.4,6.2,1.2c1.8,0.8,3.2,2,4.2,3.4c1,1.5,1.8,3.1,2.3,4.9
		c0.5,1.8,0.7,3.8,0.7,6c0,0.6,0,1-0.1,1.3h-20.9c0.1,2.9,1,5.1,2.7,6.5c1.7,1.4,3.9,2.1,6.6,2.1c3.2,0,6.4-1.1,9.4-3.2l1.9,5.2
		c-1.9,1.3-3.8,2.3-5.7,2.9C153.1,73.9,151,74.3,148.7,74.3z M140.2,55.1H155c-0.3-2.1-1.1-3.7-2.4-4.9c-1.2-1.1-2.7-1.7-4.5-1.7
		c-2.1,0-3.8,0.6-5.2,1.7S140.6,53.1,140.2,55.1z"/>
	<path d="M169.1,73.6V51.3c0-1.2,0-2.4-0.1-3.6c-0.1-1.3-0.2-2.2-0.3-2.9l-0.1-1h7.7v3.9c1.2-1.5,2.4-2.7,3.5-3.5
		c1.2-0.8,2.5-1.2,4-1.2c0.9,0,1.9,0.1,3,0.4v6.3c-1.3-0.4-2.5-0.6-3.6-0.6c-2,0-3.6,0.6-4.9,1.9c-1.3,1.3-1.9,3.2-1.9,5.6v16.9
		H169.1z"/>
	<path d="M206.4,74.3c-5,0-9-1.4-11.9-4.3c-2.9-2.9-4.3-6.6-4.3-11.2c0-2.1,0.3-4.1,1-6c0.7-1.9,1.7-3.5,2.9-5
		c1.3-1.5,2.9-2.6,4.8-3.5c1.9-0.9,4.1-1.3,6.5-1.3c2.4,0,4.4,0.4,6.2,1.2c1.8,0.8,3.2,2,4.2,3.4c1,1.5,1.8,3.1,2.3,4.9
		c0.5,1.8,0.7,3.8,0.7,6c0,0.6,0,1-0.1,1.3h-20.9c0.1,2.9,1,5.1,2.7,6.5c1.7,1.4,3.9,2.1,6.6,2.1c3.2,0,6.4-1.1,9.4-3.2l1.9,5.2
		c-1.9,1.3-3.8,2.3-5.7,2.9C210.8,73.9,208.7,74.3,206.4,74.3z M197.9,55.1h14.8c-0.3-2.1-1.1-3.7-2.4-4.9c-1.2-1.1-2.7-1.7-4.5-1.7
		c-2.1,0-3.8,0.6-5.2,1.7S198.3,53.1,197.9,55.1z"/>
	<path d="M238.8,74.3c-3.9,0-7.1-1.4-9.7-4.2c-2.6-2.8-3.9-6.6-3.9-11.2c0-2.1,0.3-4.1,0.9-6c0.6-1.9,1.5-3.6,2.6-5
		c1.1-1.5,2.6-2.6,4.5-3.5c1.8-0.9,3.9-1.3,6.2-1.3c2.1,0,3.8,0.4,5.2,1.3c1.4,0.8,2.4,1.7,3,2.6V31.2h7.1v34.4c0,0.1,0.1,2.8,0.3,8
		h-7.4l-0.1-3.8c-0.2,0.4-0.5,0.9-0.9,1.4s-0.9,0.9-1.6,1.4c-0.7,0.5-1.6,0.9-2.6,1.2C241.3,74.1,240.1,74.3,238.8,74.3z
		 M240.3,68.4c1.3,0,2.5-0.3,3.5-0.8c1-0.5,1.8-1.3,2.3-2.2c0.6-0.9,1-2,1.3-3.1c0.3-1.1,0.4-2.3,0.4-3.6c0-2.9-0.6-5.3-1.9-7.1
		c-1.3-1.8-3.1-2.7-5.7-2.7c-1.7,0-3.1,0.5-4.3,1.4c-1.2,0.9-2,2.1-2.5,3.5s-0.7,3-0.7,4.9c0,1.3,0.1,2.6,0.4,3.7
		c0.3,1.1,0.7,2.2,1.3,3.1c0.6,0.9,1.4,1.7,2.4,2.2C237.8,68.2,239,68.4,240.3,68.4z"/>
	<path d="M296.8,74.3c-2,0-3.8-0.4-5.4-1.3c-1.6-0.9-2.8-1.9-3.5-3.1v3.7h-7.4c0-1.3,0.1-2.5,0.1-3.5c0-1,0.1-1.8,0.1-2.2
		c0-0.4,0-0.8,0-1.1c0-0.3,0-0.5,0-0.7s0-0.3,0-0.4V31.2h7.1V48c0.1-0.3,0.3-0.8,0.7-1.3c0.4-0.5,0.9-1,1.6-1.6
		c0.7-0.6,1.7-1.1,2.9-1.5c1.2-0.4,2.6-0.6,4.1-0.6c4.2,0,7.5,1.4,9.9,4.3c2.4,2.9,3.6,6.6,3.6,11.2c0,2.3-0.4,4.4-1.1,6.4
		c-0.7,2-1.7,3.6-3,5s-2.7,2.4-4.4,3.2C300.5,73.9,298.7,74.3,296.8,74.3z M295.5,68.4c1.3,0,2.5-0.3,3.5-0.8c1-0.5,1.8-1.3,2.4-2.2
		s1-2,1.3-3.1c0.3-1.1,0.5-2.3,0.5-3.6c0-2.9-0.6-5.2-1.9-7.1c-1.3-1.9-3.1-2.8-5.6-2.8c-2.5,0-4.6,0.9-6,2.8
		c-1.5,1.9-2.2,4.2-2.2,7c0,1.8,0.3,3.4,0.9,4.8c0.6,1.4,1.5,2.6,2.7,3.6C292.2,68,293.7,68.4,295.5,68.4z"/>
	<path d="M321.2,86.5l-3-4.9c2.7-1,4.7-2.1,6.1-3.2c1.3-1.1,2.3-2.5,2.7-4l0.4-1.5l-12.7-29.1h7.5l8.6,21.4l7.4-21.4h7.4l-12.1,31.4
		c-0.8,2.1-1.9,3.9-3.3,5.4c-1.4,1.6-2.8,2.8-4.2,3.7C324.6,85.3,323,86,321.2,86.5z"/>
</g>
<g>
	<g id="g3766_2_">
		<polygon id="polygon3768_2_" class="st1" points="405.9,33 360.7,11.4 360.7,23.2 391.8,38.1 360.7,53.3 360.7,65.1 405.9,86.8 
			405.9,74.9 375.4,60.3 405.9,44.9 		"/>
		<polygon id="polygon3770_2_" class="st2" points="405.9,33.1 417.6,27.9 417.6,39.6 405.9,44.8 		"/>
		<polygon id="polygon3772_2_" class="st2" points="405.9,86.8 417.6,81.6 417.6,45.3 405.9,50.5 		"/>
		<polygon id="polygon3774_2_" class="st3" points="372.6,6.3 360.7,11.4 360.9,11.5 405.9,33.1 417.6,27.9 		"/>
	</g>
	<g>
		<path class="st1" d="M356.6,103l6.5-6.8v-0.1h-6.1v-2.4h9.8v2.7l-6.5,6.9h6.8v2.4h-10.4V103z"/>
		<path class="st1" d="M369.2,89.6c0-0.5,0.2-0.9,0.5-1.3c0.4-0.4,0.8-0.5,1.4-0.5s1,0.2,1.4,0.5c0.4,0.3,0.6,0.8,0.6,1.3
			c0,0.5-0.2,0.9-0.6,1.3c-0.4,0.3-0.8,0.5-1.4,0.5s-1-0.2-1.4-0.5C369.4,90.5,369.2,90.1,369.2,89.6z M369.6,93.7h3v12h-3V93.7z"/>
		<path class="st1" d="M376.1,86.8h3v19h-3V86.8z"/>
		<path class="st1" d="M382.7,86.8h3v19h-3V86.8z"/>
		<path class="st1" d="M388.8,89.6c0-0.5,0.2-0.9,0.5-1.3c0.4-0.4,0.8-0.5,1.4-0.5c0.6,0,1,0.2,1.4,0.5c0.4,0.3,0.6,0.8,0.6,1.3
			c0,0.5-0.2,0.9-0.6,1.3c-0.4,0.3-0.8,0.5-1.4,0.5c-0.6,0-1-0.2-1.4-0.5C389,90.5,388.8,90.1,388.8,89.6z M389.2,93.7h3v12h-3V93.7
			z"/>
		<path class="st1" d="M408.1,111.5h-3v-7.3H405c-0.2,0.2-0.3,0.4-0.6,0.6c-0.2,0.2-0.5,0.4-0.9,0.6c-0.3,0.2-0.7,0.3-1.2,0.5
			c-0.4,0.1-0.9,0.2-1.5,0.2c-0.9,0-1.6-0.2-2.4-0.5c-0.7-0.3-1.3-0.8-1.8-1.3c-0.5-0.6-0.9-1.2-1.2-2c-0.3-0.8-0.4-1.6-0.4-2.5
			c0-0.9,0.1-1.7,0.4-2.5c0.3-0.8,0.7-1.4,1.2-2c0.5-0.6,1.1-1,1.9-1.3c0.7-0.3,1.6-0.5,2.5-0.5c0.9,0,1.6,0.2,2.4,0.5
			c0.7,0.3,1.3,0.9,1.8,1.6h0.1v-1.8h2.9V111.5z M398.1,99.8c0,0.5,0.1,0.9,0.2,1.4c0.2,0.4,0.4,0.8,0.7,1.2
			c0.3,0.3,0.7,0.6,1.1,0.8c0.4,0.2,0.9,0.3,1.5,0.3c0.6,0,1-0.1,1.5-0.3c0.4-0.2,0.8-0.5,1.1-0.8c0.3-0.3,0.5-0.7,0.7-1.2
			c0.2-0.4,0.2-0.9,0.2-1.4c0-0.5-0.1-0.9-0.2-1.4c-0.2-0.4-0.4-0.8-0.7-1.2c-0.3-0.3-0.7-0.6-1.1-0.8c-0.4-0.2-0.9-0.3-1.5-0.3
			c-0.6,0-1,0.1-1.5,0.3c-0.4,0.2-0.8,0.5-1.1,0.8c-0.3,0.3-0.5,0.7-0.7,1.2C398.2,98.8,398.1,99.3,398.1,99.8z"/>
		<path class="st1" d="M419,104.1L419,104.1c-0.5,0.7-1.1,1.2-1.7,1.5c-0.7,0.3-1.4,0.5-2.2,0.5c-0.6,0-1.1-0.1-1.6-0.2
			c-0.5-0.2-1-0.4-1.4-0.7c-0.4-0.3-0.7-0.7-1-1.1c-0.3-0.5-0.4-1-0.4-1.6c0-0.7,0.1-1.2,0.4-1.7c0.2-0.5,0.5-0.8,0.9-1.2
			c0.4-0.3,0.8-0.6,1.4-0.7c0.5-0.2,1.1-0.3,1.6-0.4c0.6-0.1,1.1-0.2,1.7-0.2c0.6,0,1.1,0,1.6,0h0.8v-0.3c0-0.8-0.3-1.3-0.8-1.7
			c-0.5-0.4-1.2-0.6-2-0.6c-0.6,0-1.2,0.1-1.8,0.3c-0.6,0.2-1,0.5-1.4,0.9l-1.6-1.6c0.7-0.7,1.5-1.2,2.3-1.5
			c0.9-0.3,1.8-0.5,2.8-0.5c0.9,0,1.6,0.1,2.2,0.3c0.6,0.2,1.1,0.4,1.5,0.7c0.4,0.3,0.7,0.6,0.9,1c0.2,0.4,0.4,0.8,0.5,1.2
			c0.1,0.4,0.1,0.8,0.2,1.2c0,0.4,0,0.7,0,1v6.9H419V104.1z M418.9,100.4h-0.6c-0.4,0-0.9,0-1.4,0.1c-0.5,0-1,0.1-1.5,0.2
			c-0.5,0.1-0.8,0.3-1.2,0.6c-0.3,0.2-0.5,0.6-0.5,1c0,0.3,0.1,0.5,0.2,0.7c0.1,0.2,0.3,0.4,0.5,0.5c0.2,0.1,0.4,0.2,0.7,0.3
			c0.3,0.1,0.5,0.1,0.8,0.1c1,0,1.8-0.2,2.3-0.7c0.5-0.5,0.7-1.2,0.7-2V100.4z"/>
	</g>
</g>
</svg>
